Also called: Cidade de Deus
 
http://www.imdb.com/title/tt0317248/

Source: City.Of.God.2002.720p.BluRay.x264-SiNNERS 

Subs: Bulgarian, Chinese, Croatian, Danish, Dutch, English, Estonian, Farsi-Persian, Finnish, French, Greek, Hungarian, Indonesian, Portuguese, Romanian, Slovenian, Spanish, Swedish and Vietnamese.

Sample and Screens included.

General
Complete name                    : City Of God-720p MP4 AAC x264 BRRip 2002-CC.mp4
Format                           : MPEG-4
Format profile                   : Base Media
Codec ID                         : isom
File size                        : 2.23 GiB
Duration                         : 2h 9mn
Overall bit rate                 : 2 463 Kbps
Encoded date                     : UTC 2012-06-28 15:15:44

Video
ID                               : 1
Format                           : AVC
Format/Info                      : Advanced Video Codec
Format profile                   : High@L3.1
Format settings, CABAC           : Yes
Format settings, ReFrames        : 5 frames
Codec ID                         : avc1
Codec ID/Info                    : Advanced Video Coding
Duration                         : 2h 9mn
Bit rate mode                    : Variable
Bit rate                         : 2 074 Kbps
Nominal bit rate                 : 2 117 Kbps
Maximum bit rate                 : 33.6 Mbps
Width                            : 1 280 pixels
Height                           : 688 pixels
Display aspect ratio             : 1.860
Frame rate mode                  : Variable
Frame rate                       : 23.976 fps
Minimum frame rate               : 23.810 fps
Maximum frame rate               : 24.390 fps
Resolution                       : 24 bits
Colorimetry                      : 4:2:0
Scan type                        : Progressive
Bits/(Pixel*Frame)               : 0.098
Stream size                      : 1.88 GiB (84%)
Writing library                  : x264 core 112

Audio
ID                               : 2
Format                           : AAC
Format/Info                      : Advanced Audio Codec
Format version                   : Version 4
Format profile                   : LC
Format settings, SBR             : No
Codec ID                         : 40
Duration                         : 2h 9mn
Bit rate mode                    : Variable
Bit rate                         : 384 Kbps
Maximum bit rate                 : 573 Kbps
Channel(s)                       : 6 channels
Channel positions                : Front: L C R, Rear: L R, LFE
Sampling rate                    : 48.0 KHz
Resolution                       : 16 bits
Stream size                      : 356 MiB (16%)
Language                         : Portuguese

Enjoy...

Requested by varuneric. ( more coming up )